<?xml version="1.0" standalone="no"?>
<!DOCTYPE svg PUBLIC "-//W3C//DTD SVG 20010904//EN"
 "http://www.w3.org/TR/2001/REC-SVG-20010904/DTD/svg10.dtd">
<svg version="1.0" xmlns="http://www.w3.org/2000/svg"
 width="2048.000000pt" height="2048.000000pt" viewBox="0 0 2048.000000 2048.000000"
 preserveAspectRatio="xMidYMid meet">

<g transform="translate(0.000000,2048.000000) scale(0.100000,-0.100000)"
fill="#000000" stroke="none">
<path d="M9615 18949 c-1403 -88 -2715 -494 -3905 -1207 -904 -542 -1750
-1309 -2395 -2172 -907 -1215 -1479 -2687 -1639 -4220 -56 -533 -60 -1153 -10
-1680 97 -1040 369 -2034 814 -2980 368 -780 847 -1501 1439 -2165 171 -192
542 -559 736 -729 1008 -882 2162 -1518 3416 -1881 1456 -422 2942 -464 4393
-124 1116 261 2180 752 3096 1427 2693 1986 3960 5400 3234 8712 -241 1097
-675 2118 -1302 3060 -329 495 -668 906 -1111 1351 -456 456 -855 785 -1366
1126 -1269 846 -2670 1335 -4205 1469 -216 19 -976 27 -1195 13z m895 -49
c1627 -77 3165 -590 4525 -1508 700 -473 1363 -1079 1910 -1747 1052 -1284
1736 -2886 1934 -4530 54 -446 75 -1065 52 -1495 -140 -2547 -1366 -4849
-3381 -6344 -1230 -914 -2697 -1475 -4230 -1620 -384 -37 -912 -47 -1286 -26
-1440 83 -2821 511 -4061 1261 -1785 1079 -3155 2781 -3819 4743 -426 1256
-565 2580 -409 3866 194 1591 842 3118 1834 4324 271 330 668 744 951 990 469
410 977 766 1514 1060 1346 739 2914 1099 4466 1026z"/>
<path d="M9815 18424 c-651 -39 -1125 -108 -1635 -238 -1801 -458 -3327 -1474
-4435 -2951 -807 -1077 -1340 -2403 -1514 -3770 -90 -700 -90 -1382 -1 -2065
202 -1541 808 -2968 1774 -4175 1013 -1268 2384 -2224 3911 -2728 300 -99 357
-116 622 -181 399 -99 766 -162 1198 -205 1097 -111 2252 19 3316 373 1546
514 2887 1483 3859 2791 868 1167 1404 2566 1540 4020 76 819 36 1586 -126
2395 -286 1433 -948 2766 -1933 3895 -148 170 -629 648 -798 793 -871 746
-1797 1273 -2858 1628 -625 208 -1282 342 -1965 399 -173 15 -815 27 -955 19z
m685 -54 c886 -42 1694 -207 2510 -512 1810 -677 3349 -1980 4313 -3653 667
-1158 1040 -2428 1108 -3775 27 -528 -7 -1083 -101 -1681 -153 -971 -526
-1978 -1055 -2849 -1238 -2038 -3360 -3409 -5750 -3715 -503 -64 -1184 -76
-1731 -30 -631 53 -1292 192 -1914 404 -1958 664 -3605 2041 -4618 3857 -472
848 -799 1793 -951 2749 -146 924 -125 1944 60 2860 209 1036 609 1997 1193
2870 279 416 555 753 920 1123 464 470 896 818 1441 1159 1355 848 2966 1268
4575 1193z"/>
<path d="M8938 16630 c-201 -36 -381 -132 -515 -273 -84 -89 -142 -183 -179
-292 -25 -71 -28 -97 -32 -240 -3 -142 39 -4874 52 -5895 3 -217 13 -1230 21
-2250 17 -2035 16 -1996 79 -2244 102 -397 308 -758 601 -1052 313 -314 679
-513 1085 -591 55 -10 327 -21 1020 -38 939 -24 945 -24 1010 -5 191 57 362
255 450 522 178 542 -11 1156 -385 1252 -45 12 -226 22 -740 41 -374 14 -728
25 -787 25 -124 0 -177 15 -278 81 -73 47 -182 155 -244 242 -53 74 -120 211
-142 288 -14 47 -21 569 -54 4034 -21 2189 -41 4363 -45 4830 -4 468 -10 904
-15 970 -9 111 -12 126 -49 201 -89 180 -268 319 -486 379 -69 19 -296 28
-367 15z m259 -51 c274 -37 495 -205 577 -437 18 -51 17 62 66 -5332 22 -2373
41 -4376 43 -4450 5 -148 20 -206 83 -333 56 -113 112 -187 218 -292 83 -82
117 -108 190 -145 85 -43 92 -45 190 -48 55 -2 427 -16 826 -32 663 -25 729
-29 777 -48 157 -60 276 -222 341 -461 24 -88 26 -112 27 -301 0 -194 -2 -211
-28 -314 -72 -274 -207 -475 -375 -558 -62 -31 -74 -33 -187 -36 -239 -6
-1765 37 -1860 53 -406 67 -783 270 -1095 591 -359 370 -575 824 -629 1326 -6
54 -11 285 -11 515 0 230 -7 1098 -15 1928 -60 5955 -74 7684 -65 7741 58 359
399 630 807 643 23 0 77 -4 120 -10z"/>
<path d="M12915 12736 c-759 -292 -1636 -631 -1950 -751 -313 -121 -573 -223
-576 -228 -3 -5 -10 -7 -15 -5 -4 1 -20 -15 -35 -37 l-27 -40 19 -1020 c10
-561 18 -1107 18 -1212 1 -163 3 -193 16 -193 8 0 19 -10 26 -21 11 -21 16
-21 98 -16 165 12 371 78 630 203 200 96 298 152 511 292 793 520 1617 1344
2177 2178 287 428 490 837 572 1154 12 47 27 97 32 112 9 21 7 33 -6 56 -20
33 -64 62 -92 61 -10 0 -639 -240 -1398 -533z m1433 464 c24 -39 -61 -315
-174 -561 -584 -1277 -2112 -2799 -3274 -3262 -195 -78 -466 -138 -485 -107
-7 11 -44 1882 -45 2262 l0 157 33 17 c37 20 3907 1513 3922 1513 6 1 16 -8
23 -19z"/>
</g>
</svg>
