<svg id="svg" version="1.1" xmlns="http://www.w3.org/2000/svg" xmlns:xlink="http://www.w3.org/1999/xlink" width="400" height="400" viewBox="0, 0, 400,400"><g id="svgg"><path id="path0" d="M187.695 30.272 C 181.444 30.707,179.353 30.911,174.414 31.564 C 169.776 32.177,163.777 33.264,159.570 34.252 C 156.341 35.011,153.179 35.791,152.734 35.939 C 152.466 36.028,151.719 36.248,151.074 36.428 C 150.430 36.607,149.551 36.864,149.121 36.999 C 148.691 37.134,147.856 37.389,147.266 37.566 C 144.682 38.339,138.899 40.333,137.793 40.833 C 137.578 40.930,136.611 41.310,135.645 41.677 C 123.826 46.165,110.171 53.741,98.573 62.245 C 80.809 75.272,64.338 93.901,53.709 112.988 C 53.351 113.633,52.762 114.688,52.401 115.332 C 51.734 116.523,47.452 125.149,46.726 126.762 C 46.148 128.047,44.465 132.105,43.853 133.691 C 43.562 134.443,43.209 135.322,43.068 135.645 C 42.813 136.227,41.628 139.564,40.814 141.992 C 38.327 149.412,36.312 157.326,34.849 165.430 C 34.684 166.343,34.470 167.529,34.372 168.066 C 32.447 178.644,31.651 198.008,32.693 208.887 C 33.486 217.154,34.178 221.998,35.540 228.809 C 36.271 232.468,36.821 234.866,37.665 238.086 C 38.455 241.100,38.476 241.178,38.766 242.188 C 38.906 242.671,39.170 243.594,39.353 244.238 C 39.537 244.883,39.886 246.025,40.129 246.777 C 40.371 247.529,40.753 248.716,40.978 249.414 C 41.813 252.018,44.014 258.034,44.727 259.668 C 44.821 259.883,45.334 261.113,45.867 262.402 C 47.568 266.517,51.618 274.934,53.479 278.223 C 53.783 278.760,54.368 279.814,54.779 280.566 C 68.871 306.333,93.323 331.021,119.727 346.141 C 124.791 349.042,135.051 354.297,135.648 354.297 C 135.684 354.297,136.361 354.596,137.153 354.962 C 138.568 355.615,144.677 358.065,147.363 359.056 C 149.180 359.726,154.690 361.545,157.129 362.280 C 160.344 363.249,165.929 364.696,168.848 365.318 C 169.707 365.501,170.938 365.771,171.582 365.918 C 172.227 366.065,173.062 366.232,173.438 366.289 C 173.813 366.347,174.824 366.528,175.684 366.692 C 192.723 369.946,214.169 370.293,230.469 367.578 C 231.060 367.479,232.422 367.258,233.496 367.087 C 237.942 366.378,245.337 364.781,248.828 363.776 C 249.312 363.637,250.718 363.238,251.953 362.889 C 254.058 362.295,261.932 359.754,262.793 359.391 C 263.160 359.236,263.856 358.968,265.576 358.316 C 271.955 355.902,283.354 350.513,287.154 348.116 C 287.555 347.863,287.927 347.656,287.980 347.656 C 288.248 347.656,295.065 343.402,298.242 341.252 C 317.042 328.532,332.743 312.333,344.850 293.164 C 346.587 290.415,347.656 288.672,347.656 288.592 C 347.656 288.546,348.036 287.864,348.500 287.077 C 350.478 283.717,355.859 273.102,355.859 272.558 C 355.859 272.520,356.129 271.889,356.458 271.156 C 357.352 269.165,357.368 269.127,358.554 266.211 C 360.382 261.717,362.884 254.245,364.341 248.926 C 364.517 248.281,364.783 247.314,364.931 246.777 C 365.079 246.240,365.341 245.186,365.514 244.434 C 365.686 243.682,365.909 242.759,366.010 242.383 C 366.193 241.697,366.510 240.224,367.062 237.500 C 371.060 217.766,371.455 195.986,368.162 176.758 C 367.432 172.499,367.105 170.781,366.489 167.969 C 366.017 165.815,364.637 160.107,364.364 159.180 C 364.222 158.696,363.957 157.773,363.775 157.129 C 363.594 156.484,363.371 155.737,363.280 155.469 C 363.189 155.200,362.923 154.321,362.689 153.516 C 361.054 147.894,357.983 139.766,354.868 132.813 C 354.166 131.245,349.892 122.686,349.163 121.387 C 348.921 120.957,348.336 119.902,347.863 119.043 C 345.455 114.676,340.472 106.906,337.216 102.441 C 334.400 98.580,332.925 96.694,329.517 92.598 C 323.551 85.430,316.091 77.861,309.375 72.164 C 308.247 71.207,307.280 70.376,307.227 70.316 C 306.617 69.637,297.939 63.053,294.733 60.835 C 291.053 58.291,282.870 53.125,282.518 53.125 C 282.469 53.125,282.009 52.869,281.497 52.556 C 279.416 51.284,270.829 46.884,267.675 45.472 C 260.308 42.177,252.861 39.391,245.898 37.325 C 244.771 36.990,243.584 36.632,243.262 36.528 C 242.307 36.222,235.188 34.438,233.496 34.081 C 225.822 32.463,220.463 31.592,214.355 30.973 C 212.744 30.810,210.459 30.575,209.277 30.452 C 206.698 30.184,190.865 30.052,187.695 30.272 M208.789 40.912 C 215.329 41.409,223.775 42.553,228.223 43.544 C 228.760 43.663,229.595 43.843,230.078 43.943 C 230.562 44.043,231.528 44.257,232.227 44.419 C 232.925 44.581,234.287 44.895,235.254 45.118 C 236.221 45.340,237.231 45.597,237.500 45.689 C 237.769 45.780,238.560 46.008,239.258 46.196 C 242.669 47.112,251.099 49.811,252.637 50.478 C 252.959 50.618,254.189 51.107,255.371 51.566 C 256.553 52.024,257.888 52.563,258.339 52.762 C 258.790 52.962,259.201 53.125,259.252 53.125 C 259.304 53.125,259.990 53.421,260.777 53.784 C 261.563 54.146,262.690 54.646,263.281 54.895 C 263.872 55.143,266.245 56.290,268.555 57.442 C 272.331 59.327,273.459 59.922,276.855 61.823 C 298.159 73.747,317.629 91.923,332.363 113.640 C 336.206 119.304,345.117 135.212,345.117 136.408 C 345.117 136.456,345.413 137.139,345.776 137.925 C 346.138 138.712,346.762 140.146,347.162 141.113 C 347.563 142.080,347.965 143.047,348.056 143.262 C 348.214 143.635,349.150 146.012,349.709 147.461 C 350.591 149.745,352.669 156.004,353.503 158.887 C 355.166 164.641,356.295 169.387,357.312 174.902 C 357.900 178.095,358.059 179.035,358.221 180.273 C 358.313 180.972,358.521 182.554,358.684 183.789 C 360.245 195.591,360.321 211.071,358.877 223.242 C 358.315 227.975,357.267 234.167,356.331 238.281 C 355.519 241.846,355.457 242.095,354.278 246.484 C 353.378 249.837,351.607 255.357,350.455 258.398 C 349.182 261.763,348.091 264.527,347.565 265.723 C 347.145 266.677,346.513 268.100,346.069 269.092 C 345.140 271.167,342.265 276.968,341.351 278.613 C 338.653 283.467,337.598 285.262,335.782 288.086 C 322.971 308.004,306.306 324.391,286.719 336.330 C 281.689 339.396,280.020 340.315,274.707 342.945 C 270.241 345.157,269.352 345.567,266.113 346.910 C 264.824 347.445,263.506 347.996,263.184 348.135 C 262.861 348.273,261.938 348.624,261.133 348.914 C 260.327 349.205,259.448 349.532,259.180 349.642 C 258.911 349.752,257.769 350.149,256.641 350.523 C 255.513 350.898,254.414 351.277,254.199 351.366 C 252.527 352.055,243.224 354.595,239.454 355.392 C 227.411 357.936,217.549 358.996,206.055 358.982 C 198.047 358.972,187.534 358.217,181.869 357.245 C 181.260 357.141,179.883 356.911,178.809 356.734 C 176.770 356.399,174.477 355.965,173.145 355.663 C 172.715 355.565,171.133 355.209,169.629 354.870 C 162.926 353.362,157.104 351.587,148.223 348.342 C 147.836 348.200,146.737 347.759,145.781 347.362 C 144.825 346.964,143.604 346.461,143.066 346.244 C 142.529 346.027,141.446 345.553,140.660 345.190 C 139.873 344.828,139.188 344.531,139.138 344.531 C 138.872 344.531,130.522 340.306,127.832 338.810 C 111.998 330.007,97.930 318.922,85.886 305.762 C 83.472 303.123,82.973 302.560,81.737 301.074 C 81.201 300.430,80.711 299.858,80.650 299.805 C 80.028 299.263,74.562 292.110,72.367 288.965 C 65.563 279.215,59.563 268.385,55.378 258.301 C 54.976 257.334,54.572 256.367,54.478 256.152 C 54.384 255.938,54.127 255.278,53.906 254.688 C 53.685 254.097,53.430 253.437,53.338 253.223 C 52.519 251.300,50.551 245.619,49.685 242.676 C 49.527 242.139,49.320 241.436,49.226 241.113 C 48.303 237.980,46.887 232.516,46.493 230.566 C 46.406 230.137,46.154 228.950,45.934 227.930 C 45.410 225.505,44.717 221.589,44.154 217.871 C 42.397 206.264,42.158 189.785,43.564 177.246 C 44.160 171.938,45.349 165.051,46.618 159.570 C 46.779 158.872,46.958 158.081,47.014 157.813 C 47.158 157.129,48.811 150.985,49.011 150.391 C 49.102 150.122,49.460 148.979,49.807 147.852 C 52.437 139.305,57.212 128.025,61.382 120.508 C 61.710 119.917,62.148 119.126,62.356 118.750 C 66.329 111.577,72.767 102.196,78.105 95.801 C 92.573 78.467,111.870 63.582,131.152 54.881 C 131.689 54.639,132.656 54.200,133.301 53.905 C 134.933 53.160,137.923 51.900,139.551 51.273 C 140.303 50.984,141.182 50.632,141.504 50.492 C 143.526 49.615,150.866 47.223,154.688 46.196 C 155.386 46.008,156.177 45.781,156.445 45.692 C 156.714 45.602,158.076 45.259,159.473 44.929 C 164.288 43.791,164.131 43.825,168.555 42.956 C 170.230 42.627,173.831 42.094,178.906 41.423 C 180.375 41.229,187.292 40.686,190.039 40.550 C 193.047 40.400,205.115 40.633,208.789 40.912 M277.637 142.708 C 276.029 143.387,275.633 143.538,271.289 145.129 C 266.990 146.704,264.888 147.486,263.184 148.146 C 262.539 148.395,261.265 148.883,260.352 149.229 C 259.438 149.576,258.516 149.930,258.301 150.017 C 257.952 150.158,255.978 150.933,254.102 151.666 C 252.352 152.349,243.171 155.728,242.110 156.079 C 241.454 156.296,240.742 156.544,240.527 156.631 C 240.313 156.718,239.785 156.924,239.355 157.090 C 237.666 157.740,235.430 158.623,235.059 158.787 C 233.708 159.383,221.410 164.012,214.746 166.433 C 213.564 166.862,212.378 167.311,212.109 167.431 C 211.469 167.717,210.463 168.104,209.375 168.483 C 208.892 168.651,208.232 168.900,207.910 169.036 C 207.293 169.296,206.217 169.715,204.834 170.233 C 203.519 170.726,202.769 171.122,202.417 171.511 C 202.117 171.843,201.950 195.029,202.244 195.505 C 202.284 195.569,202.369 200.407,202.433 206.257 C 202.561 217.788,202.605 218.674,203.071 219.189 C 203.643 219.821,205.705 219.652,208.354 218.756 C 213.797 216.914,213.255 217.144,220.508 213.600 C 222.390 212.680,226.681 210.335,227.930 209.544 C 228.989 208.873,230.733 207.731,230.954 207.565 C 231.063 207.482,231.602 207.086,232.151 206.686 C 232.700 206.285,234.004 205.298,235.048 204.492 C 236.092 203.687,237.426 202.658,238.013 202.207 C 240.778 200.080,249.457 191.419,254.415 185.839 C 264.668 174.300,271.963 164.001,277.241 153.613 C 281.828 144.583,281.963 140.882,277.637 142.708 " stroke="none" fill="#406511" fill-rule="evenodd"></path><path id="path1" d="M190.332 29.817 C 182.096 30.320,178.866 30.618,173.633 31.362 C 166.132 32.428,160.156 33.661,152.441 35.735 C 146.719 37.273,136.613 40.762,132.881 42.489 C 132.542 42.645,132.210 42.773,132.143 42.773 C 132.076 42.773,131.078 43.202,129.926 43.727 C 128.774 44.251,127.393 44.875,126.855 45.115 C 117.139 49.444,103.939 57.525,94.861 64.700 C 90.994 67.758,89.839 68.734,85.452 72.652 C 82.042 75.698,74.922 83.078,71.503 87.109 C 66.623 92.864,64.696 95.396,60.128 102.051 C 55.452 108.864,49.871 118.955,46.301 127.051 C 46.064 127.588,45.745 128.304,45.592 128.642 C 43.331 133.632,39.867 143.423,38.276 149.316 C 38.190 149.639,37.815 151.001,37.445 152.344 C 37.075 153.687,36.624 155.444,36.442 156.250 C 36.261 157.056,35.989 158.242,35.838 158.887 C 32.683 172.372,31.084 193.194,32.185 206.445 C 32.989 216.124,34.284 225.101,35.846 231.836 C 36.446 234.424,37.908 240.351,38.086 240.918 C 38.188 241.240,38.395 241.943,38.547 242.480 C 39.270 245.030,39.563 245.995,40.384 248.535 C 41.682 252.551,44.165 259.268,45.232 261.651 C 45.384 261.989,45.508 262.313,45.508 262.371 C 45.508 262.429,45.859 263.234,46.289 264.160 C 46.719 265.086,47.070 265.876,47.070 265.915 C 47.070 266.090,48.625 269.349,50.379 272.852 C 73.417 318.861,115.498 352.560,165.145 364.756 C 167.084 365.232,169.062 365.702,169.540 365.799 C 170.019 365.896,171.289 366.157,172.363 366.379 C 178.003 367.544,184.312 368.445,192.676 369.280 C 197.484 369.759,213.384 369.755,218.652 369.273 C 226.031 368.598,231.914 367.779,237.793 366.608 C 242.791 365.613,243.220 365.513,250.293 363.684 C 254.122 362.693,262.853 359.763,267.173 358.019 C 269.212 357.196,271.656 356.164,272.754 355.664 C 273.398 355.370,274.409 354.924,275.000 354.674 C 278.223 353.308,286.163 349.120,290.820 346.330 C 315.960 331.267,336.465 309.891,350.533 284.082 C 351.283 282.706,355.046 275.108,355.756 273.535 C 355.902 273.213,356.250 272.445,356.531 271.829 C 358.594 267.293,362.032 257.897,363.659 252.344 C 363.990 251.216,364.344 250.029,364.446 249.707 C 364.694 248.926,366.292 242.471,366.695 240.625 C 366.870 239.819,367.097 238.809,367.199 238.379 C 371.503 220.230,371.790 195.610,367.952 173.828 C 367.640 172.056,367.302 170.254,367.202 169.824 C 367.101 169.395,366.879 168.384,366.708 167.578 C 365.127 160.135,360.877 145.981,358.996 141.895 C 358.897 141.680,358.381 140.405,357.848 139.063 C 357.316 137.720,356.563 135.934,356.175 135.093 C 355.786 134.253,355.469 133.528,355.469 133.481 C 355.469 133.010,349.553 121.290,348.306 119.291 C 348.056 118.890,347.852 118.518,347.852 118.464 C 347.852 118.358,347.629 117.981,345.016 113.672 C 328.851 87.014,305.280 64.809,277.334 49.910 C 274.506 48.402,266.961 44.727,266.695 44.727 C 266.659 44.727,266.073 44.470,265.394 44.156 C 261.184 42.211,252.576 39.036,246.582 37.218 C 245.615 36.925,244.429 36.565,243.945 36.419 C 243.142 36.175,240.148 35.363,238.477 34.937 C 238.101 34.841,237.178 34.622,236.426 34.450 C 235.674 34.278,234.531 34.016,233.887 33.868 C 220.416 30.770,202.317 29.087,190.332 29.817 M209.277 30.452 C 210.459 30.575,212.744 30.810,214.355 30.973 C 220.463 31.592,225.822 32.463,233.496 34.081 C 235.188 34.438,242.307 36.222,243.262 36.528 C 243.584 36.632,244.771 36.990,245.898 37.325 C 252.861 39.391,260.308 42.177,267.675 45.472 C 270.829 46.884,279.416 51.284,281.497 52.556 C 282.009 52.869,282.469 53.125,282.518 53.125 C 282.870 53.125,291.053 58.291,294.733 60.835 C 297.939 63.053,306.617 69.637,307.227 70.316 C 307.280 70.376,308.247 71.207,309.375 72.164 C 319.170 80.473,328.960 91.120,337.216 102.441 C 340.472 106.906,345.455 114.676,347.863 119.043 C 348.336 119.902,348.921 120.957,349.163 121.387 C 353.996 130.000,359.989 144.234,362.689 153.516 C 362.923 154.321,363.189 155.200,363.280 155.469 C 363.371 155.737,363.594 156.484,363.775 157.129 C 363.957 157.773,364.222 158.696,364.364 159.180 C 364.637 160.107,366.017 165.815,366.489 167.969 C 367.105 170.781,367.432 172.499,368.162 176.758 C 371.455 195.986,371.060 217.766,367.062 237.500 C 366.510 240.224,366.193 241.697,366.010 242.383 C 365.909 242.759,365.686 243.682,365.514 244.434 C 365.341 245.186,365.079 246.240,364.931 246.777 C 364.783 247.314,364.517 248.281,364.341 248.926 C 362.884 254.245,360.382 261.717,358.554 266.211 C 357.368 269.127,357.352 269.165,356.458 271.156 C 356.129 271.889,355.859 272.520,355.859 272.558 C 355.859 273.102,350.478 283.717,348.500 287.077 C 348.036 287.864,347.656 288.546,347.656 288.592 C 347.656 288.672,346.587 290.415,344.850 293.164 C 332.743 312.333,317.042 328.532,298.242 341.252 C 295.065 343.402,288.248 347.656,287.980 347.656 C 287.927 347.656,287.555 347.863,287.154 348.116 C 283.354 350.513,271.955 355.902,265.576 358.316 C 263.856 358.968,263.160 359.236,262.793 359.391 C 261.932 359.754,254.058 362.295,251.953 362.889 C 250.718 363.238,249.312 363.637,248.828 363.776 C 245.337 364.781,237.942 366.378,233.496 367.087 C 232.422 367.258,231.060 367.479,230.469 367.578 C 214.169 370.293,192.723 369.946,175.684 366.692 C 174.824 366.528,173.813 366.347,173.438 366.289 C 173.062 366.232,172.227 366.065,171.582 365.918 C 170.938 365.771,169.707 365.501,168.848 365.318 C 160.682 363.579,151.599 360.765,142.294 357.089 C 140.259 356.285,137.945 355.328,137.153 354.962 C 136.361 354.596,135.684 354.297,135.648 354.297 C 135.051 354.297,124.791 349.042,119.727 346.141 C 93.323 331.021,68.871 306.333,54.779 280.566 C 54.368 279.814,53.783 278.760,53.479 278.223 C 51.618 274.934,47.568 266.517,45.867 262.402 C 45.334 261.113,44.821 259.883,44.727 259.668 C 44.014 258.034,41.813 252.018,40.978 249.414 C 40.753 248.716,40.371 247.529,40.129 246.777 C 39.886 246.025,39.537 244.883,39.353 244.238 C 39.170 243.594,38.906 242.671,38.766 242.188 C 38.476 241.178,38.455 241.100,37.665 238.086 C 36.606 234.049,35.714 229.967,34.847 225.195 C 31.657 207.631,31.366 189.425,33.977 170.605 C 34.097 169.746,34.274 168.604,34.372 168.066 C 34.470 167.529,34.684 166.343,34.849 165.430 C 36.312 157.326,38.327 149.412,40.814 141.992 C 41.628 139.564,42.813 136.227,43.068 135.645 C 43.209 135.322,43.562 134.443,43.853 133.691 C 44.465 132.105,46.148 128.047,46.726 126.762 C 47.452 125.149,51.734 116.523,52.401 115.332 C 52.762 114.688,53.351 113.633,53.709 112.988 C 70.104 83.546,97.397 58.622,128.527 44.665 C 130.680 43.699,134.113 42.258,135.645 41.677 C 136.611 41.310,137.578 40.930,137.793 40.833 C 138.899 40.333,144.682 38.339,147.266 37.566 C 147.856 37.389,148.691 37.134,149.121 36.999 C 149.551 36.864,150.430 36.607,151.074 36.428 C 151.719 36.248,152.466 36.028,152.734 35.939 C 153.179 35.791,156.341 35.011,159.570 34.252 C 163.777 33.264,169.776 32.177,174.414 31.564 C 179.353 30.911,181.444 30.707,187.695 30.272 C 190.865 30.052,206.698 30.184,209.277 30.452 M190.039 40.550 C 187.292 40.686,180.375 41.229,178.906 41.423 C 173.831 42.094,170.230 42.627,168.555 42.956 C 164.131 43.825,164.288 43.791,159.473 44.929 C 158.076 45.259,156.714 45.602,156.445 45.692 C 156.177 45.781,155.386 46.008,154.688 46.196 C 150.866 47.223,143.526 49.615,141.504 50.492 C 141.182 50.632,140.303 50.984,139.551 51.273 C 137.923 51.900,134.933 53.160,133.301 53.905 C 132.656 54.200,131.689 54.639,131.152 54.881 C 111.870 63.582,92.573 78.467,78.105 95.801 C 72.767 102.196,66.329 111.577,62.356 118.750 C 62.148 119.126,61.710 119.917,61.382 120.508 C 57.212 128.025,52.437 139.305,49.807 147.852 C 49.460 148.979,49.102 150.122,49.011 150.391 C 48.811 150.985,47.158 157.129,47.014 157.813 C 46.958 158.081,46.779 158.872,46.618 159.570 C 42.611 176.884,41.578 195.861,43.656 213.965 C 44.152 218.285,45.082 223.987,45.934 227.930 C 46.154 228.950,46.406 230.137,46.493 230.566 C 46.887 232.516,48.303 237.980,49.226 241.113 C 49.320 241.436,49.527 242.139,49.685 242.676 C 50.551 245.619,52.519 251.300,53.338 253.223 C 53.430 253.437,53.685 254.097,53.906 254.688 C 54.127 255.278,54.384 255.938,54.478 256.152 C 54.572 256.367,54.976 257.334,55.378 258.301 C 59.563 268.385,65.563 279.215,72.367 288.965 C 74.562 292.110,80.028 299.263,80.650 299.805 C 80.711 299.858,81.201 300.430,81.737 301.074 C 82.973 302.560,83.472 303.123,85.886 305.762 C 97.930 318.922,111.998 330.007,127.832 338.810 C 130.522 340.306,138.872 344.531,139.138 344.531 C 139.188 344.531,139.873 344.828,140.660 345.190 C 141.446 345.553,142.529 346.027,143.066 346.244 C 143.604 346.461,144.825 346.964,145.781 347.362 C 146.737 347.759,147.836 348.200,148.223 348.342 C 157.104 351.587,162.926 353.362,169.629 354.870 C 171.133 355.209,172.715 355.565,173.145 355.663 C 174.477 355.965,176.770 356.399,178.809 356.734 C 179.883 356.911,181.260 357.141,181.869 357.245 C 187.534 358.217,198.047 358.972,206.055 358.982 C 217.549 358.996,227.411 357.936,239.454 355.392 C 243.224 354.595,252.527 352.055,254.199 351.366 C 254.414 351.277,255.513 350.898,256.641 350.523 C 257.769 350.149,258.911 349.752,259.180 349.642 C 259.448 349.532,260.327 349.205,261.133 348.914 C 261.938 348.624,262.861 348.273,263.184 348.135 C 263.506 347.996,264.824 347.445,266.113 346.910 C 272.889 344.100,279.756 340.574,286.719 336.330 C 306.306 324.391,322.971 308.004,335.782 288.086 C 337.598 285.262,338.653 283.467,341.351 278.613 C 342.265 276.968,345.140 271.167,346.069 269.092 C 346.513 268.100,347.145 266.677,347.565 265.723 C 348.091 264.527,349.182 261.763,350.455 258.398 C 351.607 255.357,353.378 249.837,354.278 246.484 C 355.457 242.095,355.519 241.846,356.331 238.281 C 356.929 235.652,357.845 230.639,358.383 227.051 C 360.299 214.255,360.420 196.914,358.684 183.789 C 358.521 182.554,358.313 180.972,358.221 180.273 C 358.059 179.035,357.900 178.095,357.312 174.902 C 356.295 169.387,355.166 164.641,353.503 158.887 C 352.669 156.004,350.591 149.745,349.709 147.461 C 349.150 146.012,348.214 143.635,348.056 143.262 C 347.965 143.047,347.563 142.080,347.162 141.113 C 346.762 140.146,346.138 138.712,345.776 137.925 C 345.413 137.139,345.117 136.456,345.117 136.408 C 345.117 136.158,341.462 128.941,339.834 125.977 C 330.928 109.759,319.835 95.724,305.640 82.715 C 297.613 75.358,286.075 66.984,276.855 61.823 C 273.459 59.922,272.331 59.327,268.555 57.442 C 266.245 56.290,263.872 55.143,263.281 54.895 C 262.690 54.646,261.563 54.146,260.777 53.784 C 259.990 53.421,259.304 53.125,259.252 53.125 C 259.201 53.125,258.790 52.962,258.339 52.762 C 257.888 52.563,256.553 52.024,255.371 51.566 C 254.189 51.107,252.959 50.618,252.637 50.478 C 251.099 49.811,242.669 47.112,239.258 46.196 C 238.560 46.008,237.769 45.780,237.500 45.689 C 237.231 45.597,236.221 45.340,235.254 45.118 C 234.287 44.895,232.925 44.581,232.227 44.419 C 231.528 44.257,230.562 44.043,230.078 43.943 C 229.595 43.843,228.760 43.663,228.223 43.544 C 223.775 42.553,215.329 41.409,208.789 40.912 C 205.115 40.633,193.047 40.400,190.039 40.550 M208.887 41.203 C 209.961 41.303,211.851 41.479,213.086 41.592 C 215.369 41.802,215.961 41.878,220.801 42.581 C 238.669 45.174,257.883 51.678,274.023 60.597 C 277.871 62.723,277.972 62.782,280.957 64.609 C 293.926 72.551,308.018 84.236,317.170 94.638 C 317.967 95.543,318.761 96.438,318.936 96.628 C 319.111 96.818,320.354 98.291,321.698 99.902 C 328.603 108.181,334.023 116.150,339.898 126.660 C 344.922 135.648,351.505 151.890,353.792 160.938 C 353.860 161.206,354.308 162.967,354.788 164.852 C 355.268 166.736,355.740 168.669,355.838 169.148 C 355.935 169.628,356.207 170.942,356.442 172.070 C 356.890 174.222,356.964 174.632,357.594 178.418 C 358.961 186.642,359.613 195.106,359.617 204.688 C 359.622 216.513,358.531 226.657,355.985 238.477 C 354.652 244.661,351.223 256.109,349.519 260.059 C 349.380 260.381,348.998 261.348,348.671 262.207 C 347.971 264.043,347.086 266.136,346.167 268.129 C 345.805 268.916,345.508 269.601,345.508 269.652 C 345.508 269.782,341.788 277.218,341.074 278.516 C 331.758 295.443,319.852 310.190,306.055 321.893 C 298.283 328.484,290.059 334.288,282.617 338.435 C 282.134 338.704,281.077 339.298,280.269 339.754 C 273.757 343.427,264.623 347.451,256.055 350.422 C 230.604 359.246,201.979 361.034,174.023 355.548 C 172.400 355.229,172.353 355.219,167.727 354.104 C 153.294 350.627,135.136 343.266,124.629 336.633 C 124.193 336.358,123.797 336.133,123.750 336.133 C 123.580 336.133,119.806 333.772,116.602 331.661 C 99.027 320.085,82.654 303.815,70.784 286.133 C 67.984 281.962,65.904 278.548,62.750 272.949 C 56.655 262.130,49.785 244.245,47.257 232.617 C 47.175 232.241,46.922 231.099,46.693 230.078 C 42.429 211.033,41.758 189.217,44.850 170.117 C 45.786 164.336,46.896 159.270,48.551 153.223 C 49.700 149.024,52.676 139.977,53.498 138.184 C 53.596 137.969,54.087 136.782,54.589 135.547 C 70.932 95.287,104.701 63.393,145.996 49.215 C 150.649 47.618,155.750 46.104,159.151 45.310 C 160.080 45.093,161.191 44.832,161.621 44.729 C 164.901 43.941,169.692 43.027,173.242 42.509 C 177.390 41.905,178.268 41.795,180.469 41.601 C 181.704 41.492,183.082 41.350,183.530 41.287 C 186.672 40.841,204.395 40.782,208.887 41.203 M174.805 75.819 C 171.343 76.406,170.598 76.622,168.457 77.656 C 165.482 79.095,161.328 83.376,161.328 85.005 C 161.328 85.109,161.203 85.472,161.051 85.810 C 160.383 87.292,160.369 94.691,160.934 147.461 C 161.041 157.505,161.230 177.720,161.354 192.383 C 161.478 207.046,161.601 219.438,161.629 219.922 C 161.657 220.405,161.705 228.711,161.736 238.379 C 161.767 248.047,161.858 260.527,161.938 266.113 C 162.018 271.699,162.112 278.265,162.145 280.703 C 162.190 283.919,162.274 285.204,162.451 285.381 C 162.600 285.530,162.701 286.198,162.710 287.100 C 162.728 288.985,162.890 289.923,163.830 293.555 C 164.034 294.343,164.503 295.734,164.853 296.582 C 164.985 296.904,165.220 297.476,165.374 297.852 C 165.638 298.495,166.705 300.638,167.510 302.140 C 167.708 302.511,167.981 302.934,168.115 303.081 C 168.250 303.228,168.359 303.425,168.359 303.518 C 168.359 304.734,175.330 313.555,178.242 316.026 C 181.717 318.974,182.600 319.542,187.540 322.009 C 188.968 322.723,190.443 323.512,190.817 323.763 C 191.191 324.014,191.723 324.219,192.000 324.219 C 192.277 324.219,192.674 324.348,192.883 324.506 C 193.091 324.663,193.530 324.795,193.857 324.798 C 194.185 324.802,194.537 324.888,194.639 324.989 C 194.741 325.090,195.176 325.261,195.605 325.368 C 196.035 325.476,196.779 325.661,197.258 325.781 C 197.737 325.900,198.221 326.070,198.332 326.159 C 198.444 326.249,199.326 326.367,200.293 326.422 C 201.260 326.478,203.237 326.625,204.688 326.750 C 208.743 327.100,231.915 326.911,233.519 326.514 C 235.415 326.046,236.187 325.755,236.835 325.263 C 237.167 325.011,237.535 324.805,237.652 324.805 C 238.669 324.805,243.080 320.353,243.941 318.457 C 244.969 316.194,245.117 315.803,245.117 315.360 C 245.117 315.114,245.242 314.524,245.394 314.048 C 245.573 313.489,245.706 311.872,245.771 309.473 C 246.011 300.643,244.203 296.650,238.281 292.940 C 237.403 292.390,235.318 292.188,230.453 292.181 C 227.830 292.177,223.486 292.092,220.801 291.992 C 218.115 291.892,213.765 291.754,211.133 291.686 C 204.203 291.505,202.666 290.974,199.505 287.667 C 197.500 285.570,194.922 281.834,194.922 281.026 C 194.922 280.933,194.699 280.396,194.426 279.833 C 193.615 278.160,193.562 276.551,193.352 247.266 C 193.241 231.958,193.123 219.038,193.089 218.555 C 193.015 217.499,192.813 198.845,192.672 179.883 C 192.615 172.310,192.524 164.663,192.469 162.891 C 192.414 161.118,192.279 148.022,192.168 133.789 C 191.920 101.920,191.684 85.859,191.450 84.958 C 190.722 82.145,185.936 77.148,183.969 77.148 C 183.877 77.148,183.514 77.027,183.161 76.879 C 181.972 76.379,181.161 76.185,179.019 75.885 C 176.677 75.557,176.381 75.552,174.805 75.819 M271.777 144.572 C 268.125 145.969,264.565 147.322,263.867 147.580 C 263.169 147.837,262.422 148.125,262.207 148.219 C 261.835 148.383,261.004 148.707,259.277 149.365 C 258.848 149.529,258.219 149.782,257.881 149.929 C 257.542 150.075,257.167 150.195,257.048 150.195 C 256.928 150.195,256.678 150.278,256.491 150.379 C 256.234 150.518,245.919 154.368,241.699 155.901 C 241.377 156.018,240.850 156.220,240.527 156.350 C 240.205 156.481,239.590 156.721,239.160 156.885 C 237.400 157.555,236.471 157.923,234.863 158.586 C 234.648 158.675,233.462 159.120,232.227 159.575 C 230.991 160.031,229.717 160.512,229.395 160.645 C 229.072 160.777,226.963 161.561,224.707 162.387 C 220.533 163.915,219.522 164.299,218.428 164.773 C 218.089 164.919,217.752 165.039,217.680 165.039 C 217.562 165.039,216.707 165.356,214.160 166.345 C 213.730 166.512,213.203 166.715,212.988 166.797 C 212.773 166.879,212.202 167.096,211.719 167.280 C 211.235 167.464,210.576 167.730,210.254 167.871 C 209.014 168.415,203.838 170.313,203.594 170.313 C 203.452 170.313,202.981 170.650,202.547 171.064 L 201.758 171.815 201.759 174.823 C 201.761 178.669,202.124 209.397,202.229 214.552 C 202.315 218.787,202.437 219.361,203.329 219.730 C 204.259 220.115,206.369 219.868,208.203 219.160 C 209.116 218.807,210.083 218.471,210.352 218.413 C 210.620 218.355,210.928 218.243,211.035 218.164 C 211.143 218.085,211.802 217.829,212.500 217.594 C 213.198 217.359,214.912 216.610,216.309 215.928 C 217.705 215.247,219.727 214.273,220.801 213.764 C 226.288 211.165,230.555 208.395,237.695 202.796 C 240.673 200.461,248.352 192.980,252.695 188.184 C 254.154 186.572,255.400 185.210,255.464 185.156 C 255.659 184.993,258.979 181.113,260.714 179.019 C 265.684 173.026,271.994 164.014,274.811 158.887 C 275.165 158.242,275.627 157.407,275.838 157.031 C 276.437 155.964,278.206 152.409,278.996 150.684 C 279.389 149.824,279.794 148.968,279.895 148.782 C 279.996 148.595,280.078 148.283,280.078 148.089 C 280.078 147.894,280.174 147.638,280.292 147.520 C 280.885 146.927,281.212 143.448,280.757 142.568 C 280.200 141.493,279.306 141.692,271.777 144.572 M280.318 142.529 C 281.423 143.788,280.448 147.300,277.241 153.613 C 270.365 167.148,258.852 182.150,244.794 195.898 C 240.458 200.139,239.293 201.222,238.013 202.207 C 237.426 202.658,236.092 203.687,235.048 204.492 C 234.004 205.298,232.700 206.285,232.151 206.686 C 231.602 207.086,231.063 207.482,230.954 207.565 C 230.733 207.731,228.989 208.873,227.930 209.544 C 226.681 210.335,222.390 212.680,220.508 213.600 C 213.255 217.144,213.797 216.914,208.354 218.756 C 205.705 219.652,203.643 219.821,203.071 219.189 C 202.605 218.674,202.561 217.788,202.433 206.257 C 202.369 200.407,202.284 195.569,202.244 195.505 C 201.950 195.029,202.117 171.843,202.417 171.511 C 202.769 171.122,203.519 170.726,204.834 170.233 C 206.217 169.715,207.293 169.296,207.910 169.036 C 208.232 168.900,208.892 168.651,209.375 168.483 C 210.463 168.104,211.469 167.717,212.109 167.431 C 212.378 167.311,213.564 166.862,214.746 166.433 C 221.410 164.012,233.708 159.383,235.059 158.787 C 235.430 158.623,237.666 157.740,239.355 157.090 C 239.785 156.924,240.313 156.718,240.527 156.631 C 240.742 156.544,241.454 156.296,242.110 156.079 C 243.171 155.728,252.352 152.349,254.102 151.666 C 255.978 150.933,257.952 150.158,258.301 150.017 C 258.516 149.930,259.438 149.576,260.352 149.229 C 261.265 148.883,262.539 148.395,263.184 148.146 C 264.888 147.486,266.990 146.704,271.289 145.129 C 275.633 143.538,276.029 143.387,277.637 142.708 C 279.034 142.118,279.906 142.060,280.318 142.529 " stroke="none" fill="#d4ac35" fill-rule="evenodd"></path><path id="path2" d="M0.000 200.000 L 0.000 400.000 200.000 400.000 L 400.000 400.000 400.000 200.000 L 400.000 0.000 200.000 0.000 L 0.000 0.000 0.000 200.000 M206.445 29.980 C 216.693 30.684,225.422 31.921,233.887 33.868 C 234.531 34.016,235.674 34.278,236.426 34.450 C 237.178 34.622,238.101 34.841,238.477 34.937 C 240.148 35.363,243.142 36.175,243.945 36.419 C 244.429 36.565,245.615 36.925,246.582 37.218 C 252.576 39.036,261.184 42.211,265.394 44.156 C 266.073 44.470,266.659 44.727,266.695 44.727 C 266.961 44.727,274.506 48.402,277.334 49.910 C 305.280 64.809,328.851 87.014,345.016 113.672 C 347.629 117.981,347.852 118.358,347.852 118.464 C 347.852 118.518,348.056 118.890,348.306 119.291 C 349.553 121.290,355.469 133.010,355.469 133.481 C 355.469 133.528,355.786 134.253,356.175 135.093 C 356.563 135.934,357.316 137.720,357.848 139.063 C 358.381 140.405,358.897 141.680,358.996 141.895 C 360.877 145.981,365.127 160.135,366.708 167.578 C 366.879 168.384,367.101 169.395,367.202 169.824 C 370.103 182.235,371.425 202.800,370.235 216.992 C 369.637 224.124,368.231 234.027,367.199 238.379 C 367.097 238.809,366.870 239.819,366.695 240.625 C 366.292 242.471,364.694 248.926,364.446 249.707 C 364.344 250.029,363.990 251.216,363.659 252.344 C 362.032 257.897,358.594 267.293,356.531 271.829 C 356.250 272.445,355.902 273.213,355.756 273.535 C 342.119 303.730,319.387 329.213,290.820 346.330 C 286.163 349.120,278.223 353.308,275.000 354.674 C 274.409 354.924,273.398 355.370,272.754 355.664 C 271.656 356.164,269.212 357.196,267.173 358.019 C 262.853 359.763,254.122 362.693,250.293 363.684 C 243.220 365.513,242.791 365.613,237.793 366.608 C 224.024 369.350,204.791 370.488,192.676 369.280 C 184.312 368.445,178.003 367.544,172.363 366.379 C 171.289 366.157,170.019 365.896,169.540 365.799 C 127.120 357.174,86.324 329.252,61.358 291.756 C 56.321 284.191,47.070 267.460,47.070 265.915 C 47.070 265.876,46.719 265.086,46.289 264.160 C 45.859 263.234,45.508 262.429,45.508 262.371 C 45.508 262.313,45.384 261.989,45.232 261.651 C 44.165 259.268,41.682 252.551,40.384 248.535 C 39.563 245.995,39.270 245.030,38.547 242.480 C 38.395 241.943,38.188 241.240,38.086 240.918 C 37.908 240.351,36.446 234.424,35.846 231.836 C 34.665 226.744,33.399 218.817,32.728 212.305 C 30.943 194.975,32.118 174.789,35.838 158.887 C 35.989 158.242,36.261 157.056,36.442 156.250 C 36.624 155.444,37.075 153.687,37.445 152.344 C 37.815 151.001,38.190 149.639,38.276 149.316 C 39.867 143.423,43.331 133.632,45.592 128.642 C 45.745 128.304,46.064 127.588,46.301 127.051 C 49.871 118.955,55.452 108.864,60.128 102.051 C 64.696 95.396,66.623 92.864,71.503 87.109 C 74.922 83.078,82.042 75.698,85.452 72.652 C 89.839 68.734,90.994 67.758,94.861 64.700 C 103.939 57.525,117.139 49.444,126.855 45.115 C 127.393 44.875,128.774 44.251,129.926 43.727 C 131.078 43.202,132.076 42.773,132.143 42.773 C 132.210 42.773,132.542 42.645,132.881 42.489 C 140.039 39.178,153.961 34.971,164.941 32.800 C 172.658 31.275,179.375 30.486,190.332 29.817 C 193.370 29.632,202.769 29.727,206.445 29.980 M187.436 41.010 C 185.736 41.099,183.978 41.223,183.530 41.287 C 183.082 41.350,181.704 41.492,180.469 41.601 C 178.268 41.795,177.390 41.905,173.242 42.509 C 169.692 43.027,164.901 43.941,161.621 44.729 C 161.191 44.832,160.080 45.093,159.151 45.310 C 146.659 48.224,131.728 54.241,119.434 61.315 C 90.422 78.007,67.116 104.687,54.589 135.547 C 54.087 136.782,53.596 137.969,53.498 138.184 C 52.335 140.722,48.952 151.405,47.468 157.227 C 41.722 179.764,41.437 206.601,46.693 230.078 C 46.922 231.099,47.175 232.241,47.257 232.617 C 48.853 239.957,52.293 250.241,56.438 260.059 C 57.325 262.160,61.665 271.024,62.750 272.949 C 65.904 278.548,67.984 281.962,70.784 286.133 C 82.654 303.815,99.027 320.085,116.602 331.661 C 119.806 333.772,123.580 336.133,123.750 336.133 C 123.797 336.133,124.193 336.358,124.629 336.633 C 136.334 344.023,153.658 350.799,171.777 355.076 C 186.380 358.523,207.505 359.591,223.730 357.703 C 243.573 355.395,264.088 348.881,280.269 339.754 C 281.077 339.298,282.134 338.704,282.617 338.435 C 287.888 335.498,294.514 331.052,300.781 326.246 C 316.465 314.220,330.714 297.341,341.074 278.516 C 341.788 277.218,345.508 269.782,345.508 269.652 C 345.508 269.601,345.805 268.916,346.167 268.129 C 347.086 266.136,347.971 264.043,348.671 262.207 C 348.998 261.348,349.380 260.381,349.519 260.059 C 350.788 257.117,353.539 248.380,354.901 242.969 C 358.151 230.048,359.622 218.106,359.617 204.688 C 359.613 195.106,358.961 186.642,357.594 178.418 C 356.964 174.632,356.890 174.222,356.442 172.070 C 356.207 170.942,355.935 169.628,355.838 169.148 C 355.740 168.669,355.268 166.736,354.788 164.852 C 354.308 162.967,353.860 161.206,353.792 160.938 C 351.505 151.890,344.922 135.648,339.898 126.660 C 334.023 116.150,328.603 108.181,321.698 99.902 C 320.354 98.291,319.111 96.818,318.936 96.628 C 318.761 96.438,317.967 95.543,317.170 94.638 C 308.018 84.236,293.926 72.551,280.957 64.609 C 277.972 62.782,277.871 62.723,274.023 60.597 C 259.539 52.593,242.589 46.526,226.172 43.468 C 223.841 43.034,221.341 42.644,216.699 41.991 C 215.947 41.886,214.321 41.706,213.086 41.592 C 211.851 41.479,209.961 41.303,208.887 41.203 C 206.182 40.949,191.198 40.815,187.436 41.010 M179.019 75.885 C 181.161 76.185,181.972 76.379,183.161 76.879 C 183.514 77.027,183.877 77.148,183.969 77.148 C 185.936 77.148,190.722 82.145,191.450 84.958 C 191.684 85.859,191.920 101.920,192.168 133.789 C 192.279 148.022,192.414 161.118,192.469 162.891 C 192.524 164.663,192.615 172.310,192.672 179.883 C 192.813 198.845,193.015 217.499,193.089 218.555 C 193.123 219.038,193.241 231.958,193.352 247.266 C 193.562 276.551,193.615 278.160,194.426 279.833 C 194.699 280.396,194.922 280.933,194.922 281.026 C 194.922 281.834,197.500 285.570,199.505 287.667 C 202.666 290.974,204.203 291.505,211.133 291.686 C 213.765 291.754,218.115 291.892,220.801 291.992 C 223.486 292.092,227.830 292.177,230.453 292.181 C 235.318 292.188,237.403 292.390,238.281 292.940 C 244.203 296.650,246.011 300.643,245.771 309.473 C 245.706 311.872,245.573 313.489,245.394 314.048 C 245.242 314.524,245.117 315.114,245.117 315.360 C 245.117 315.803,244.969 316.194,243.941 318.457 C 243.080 320.353,238.669 324.805,237.652 324.805 C 237.535 324.805,237.167 325.011,236.835 325.263 C 236.187 325.755,235.415 326.046,233.519 326.514 C 231.915 326.911,208.743 327.100,204.688 326.750 C 203.237 326.625,201.260 326.478,200.293 326.422 C 199.326 326.367,198.444 326.249,198.332 326.159 C 198.221 326.070,197.737 325.900,197.258 325.781 C 196.779 325.661,196.035 325.476,195.605 325.368 C 195.176 325.261,194.741 325.090,194.639 324.989 C 194.537 324.888,194.185 324.802,193.857 324.798 C 193.530 324.795,193.091 324.663,192.883 324.506 C 192.674 324.348,192.277 324.219,192.000 324.219 C 191.723 324.219,191.191 324.014,190.817 323.763 C 190.443 323.512,188.968 322.723,187.540 322.009 C 180.059 318.272,177.091 315.781,171.908 308.887 C 170.044 306.406,168.359 303.859,168.359 303.518 C 168.359 303.425,168.250 303.228,168.115 303.081 C 167.981 302.934,167.708 302.511,167.510 302.140 C 166.705 300.638,165.638 298.495,165.374 297.852 C 165.220 297.476,164.985 296.904,164.853 296.582 C 164.503 295.734,164.034 294.343,163.830 293.555 C 162.890 289.923,162.728 288.985,162.710 287.100 C 162.701 286.198,162.600 285.530,162.451 285.381 C 162.274 285.204,162.190 283.919,162.145 280.703 C 162.112 278.265,162.018 271.699,161.938 266.113 C 161.858 260.527,161.767 248.047,161.736 238.379 C 161.705 228.711,161.657 220.405,161.629 219.922 C 161.601 219.438,161.478 207.046,161.354 192.383 C 161.230 177.720,161.041 157.505,160.934 147.461 C 160.369 94.691,160.383 87.292,161.051 85.810 C 161.203 85.472,161.328 85.109,161.328 85.005 C 161.328 83.376,165.482 79.095,168.457 77.656 C 170.598 76.622,171.343 76.406,174.805 75.819 C 176.381 75.552,176.677 75.557,179.019 75.885 M280.757 142.568 C 281.212 143.448,280.885 146.927,280.292 147.520 C 280.174 147.638,280.078 147.894,280.078 148.089 C 280.078 148.283,279.996 148.595,279.895 148.782 C 279.794 148.968,279.389 149.824,278.996 150.684 C 278.206 152.409,276.437 155.964,275.838 157.031 C 275.627 157.407,275.165 158.242,274.811 158.887 C 272.617 162.879,268.261 169.309,263.742 175.225 C 261.908 177.625,256.018 184.692,255.464 185.156 C 255.400 185.210,254.154 186.572,252.695 188.184 C 248.352 192.980,240.673 200.461,237.695 202.796 C 230.555 208.395,226.288 211.165,220.801 213.764 C 219.727 214.273,217.705 215.247,216.309 215.928 C 214.912 216.610,213.198 217.359,212.500 217.594 C 211.802 217.829,211.143 218.085,211.035 218.164 C 210.928 218.243,210.620 218.355,210.352 218.413 C 210.083 218.471,209.116 218.807,208.203 219.160 C 206.369 219.868,204.259 220.115,203.329 219.730 C 202.437 219.361,202.315 218.787,202.229 214.552 C 202.124 209.397,201.761 178.669,201.759 174.823 L 201.758 171.815 202.547 171.064 C 202.981 170.650,203.452 170.313,203.594 170.313 C 203.838 170.313,209.014 168.415,210.254 167.871 C 210.576 167.730,211.235 167.464,211.719 167.280 C 212.202 167.096,212.773 166.879,212.988 166.797 C 213.203 166.715,213.730 166.512,214.160 166.345 C 216.707 165.356,217.562 165.039,217.680 165.039 C 217.752 165.039,218.089 164.919,218.428 164.773 C 219.522 164.299,220.533 163.915,224.707 162.387 C 226.963 161.561,229.072 160.777,229.395 160.645 C 229.717 160.512,230.991 160.031,232.227 159.575 C 233.462 159.120,234.648 158.675,234.863 158.586 C 236.471 157.923,237.400 157.555,239.160 156.885 C 239.590 156.721,240.205 156.481,240.527 156.350 C 240.850 156.220,241.377 156.018,241.699 155.901 C 245.919 154.368,256.234 150.518,256.491 150.379 C 256.678 150.278,256.928 150.195,257.048 150.195 C 257.167 150.195,257.542 150.075,257.881 149.929 C 258.219 149.782,258.848 149.529,259.277 149.365 C 261.004 148.707,261.835 148.383,262.207 148.219 C 262.422 148.125,263.169 147.837,263.867 147.580 C 264.565 147.322,268.125 145.969,271.777 144.572 C 279.306 141.692,280.200 141.493,280.757 142.568 " stroke="none" fill="#fbfbfb" fill-rule="evenodd"></path></g></svg>